M48
; DRILL file {KiCad 9.0.1-9.0.1-0~ubuntu24.04.1} date 2025-04-15T13:06:51-0700
; FORMAT={-:-/ absolute / inch / decimal}
; #@! TF.CreationDate,2025-04-15T13:06:51-07:00
; #@! TF.GenerationSoftware,Kicad,Pcbnew,9.0.1-9.0.1-0~ubuntu24.04.1
; #@! TF.FileFunction,Plated,1,2,PTH
FMAT,2
INCH
; #@! TA.AperFunction,Plated,PTH,ComponentDrill
T1C0.0354
%
G90
G05
T1
X4.6494Y-4.3689
X4.6994Y-4.2689
X4.7494Y-4.3689
X4.7994Y-4.2689
X5.3581Y-4.3689
X5.4081Y-4.2689
X5.4581Y-4.3689
X5.5081Y-4.2689
X5.9667Y-4.3642
X6.0167Y-4.2642
X6.0667Y-4.3642
X6.1167Y-4.2642
X6.1667Y-4.3642
X6.2167Y-4.2642
X6.2667Y-4.3642
X6.3167Y-4.2642
X6.7754Y-4.3689
X6.8254Y-4.2689
X6.8754Y-4.3689
X6.9254Y-4.2689
X7.4841Y-4.3689
X7.5341Y-4.2689
X7.5841Y-4.3689
X7.6341Y-4.2689
M30
