%TF.GenerationSoftware,KiCad,Pcbnew,9.0.1-9.0.1-0~ubuntu24.04.1*%
%TF.CreationDate,2025-04-15T12:59:23-07:00*%
%TF.ProjectId,pots-over-cat6,706f7473-2d6f-4766-9572-2d636174362e,rev?*%
%TF.SameCoordinates,Original*%
%TF.FileFunction,Legend,Top*%
%TF.FilePolarity,Positive*%
%FSLAX46Y46*%
G04 Gerber Fmt 4.6, Leading zero omitted, Abs format (unit mm)*
G04 Created by KiCad (PCBNEW 9.0.1-9.0.1-0~ubuntu24.04.1) date 2025-04-15 12:59:23*
%MOMM*%
%LPD*%
G01*
G04 APERTURE LIST*
%ADD10C,0.100000*%
%ADD11C,0.150000*%
%ADD12C,0.200000*%
G04 APERTURE END LIST*
D10*
X125803884Y-103872419D02*
X125803884Y-102872419D01*
X125803884Y-102872419D02*
X126184836Y-102872419D01*
X126184836Y-102872419D02*
X126280074Y-102920038D01*
X126280074Y-102920038D02*
X126327693Y-102967657D01*
X126327693Y-102967657D02*
X126375312Y-103062895D01*
X126375312Y-103062895D02*
X126375312Y-103205752D01*
X126375312Y-103205752D02*
X126327693Y-103300990D01*
X126327693Y-103300990D02*
X126280074Y-103348609D01*
X126280074Y-103348609D02*
X126184836Y-103396228D01*
X126184836Y-103396228D02*
X125803884Y-103396228D01*
X126994360Y-102872419D02*
X127184836Y-102872419D01*
X127184836Y-102872419D02*
X127280074Y-102920038D01*
X127280074Y-102920038D02*
X127375312Y-103015276D01*
X127375312Y-103015276D02*
X127422931Y-103205752D01*
X127422931Y-103205752D02*
X127422931Y-103539085D01*
X127422931Y-103539085D02*
X127375312Y-103729561D01*
X127375312Y-103729561D02*
X127280074Y-103824800D01*
X127280074Y-103824800D02*
X127184836Y-103872419D01*
X127184836Y-103872419D02*
X126994360Y-103872419D01*
X126994360Y-103872419D02*
X126899122Y-103824800D01*
X126899122Y-103824800D02*
X126803884Y-103729561D01*
X126803884Y-103729561D02*
X126756265Y-103539085D01*
X126756265Y-103539085D02*
X126756265Y-103205752D01*
X126756265Y-103205752D02*
X126803884Y-103015276D01*
X126803884Y-103015276D02*
X126899122Y-102920038D01*
X126899122Y-102920038D02*
X126994360Y-102872419D01*
X127708646Y-102872419D02*
X128280074Y-102872419D01*
X127994360Y-103872419D02*
X127994360Y-102872419D01*
X128565789Y-103824800D02*
X128708646Y-103872419D01*
X128708646Y-103872419D02*
X128946741Y-103872419D01*
X128946741Y-103872419D02*
X129041979Y-103824800D01*
X129041979Y-103824800D02*
X129089598Y-103777180D01*
X129089598Y-103777180D02*
X129137217Y-103681942D01*
X129137217Y-103681942D02*
X129137217Y-103586704D01*
X129137217Y-103586704D02*
X129089598Y-103491466D01*
X129089598Y-103491466D02*
X129041979Y-103443847D01*
X129041979Y-103443847D02*
X128946741Y-103396228D01*
X128946741Y-103396228D02*
X128756265Y-103348609D01*
X128756265Y-103348609D02*
X128661027Y-103300990D01*
X128661027Y-103300990D02*
X128613408Y-103253371D01*
X128613408Y-103253371D02*
X128565789Y-103158133D01*
X128565789Y-103158133D02*
X128565789Y-103062895D01*
X128565789Y-103062895D02*
X128613408Y-102967657D01*
X128613408Y-102967657D02*
X128661027Y-102920038D01*
X128661027Y-102920038D02*
X128756265Y-102872419D01*
X128756265Y-102872419D02*
X128994360Y-102872419D01*
X128994360Y-102872419D02*
X129137217Y-102920038D01*
X130470551Y-103872419D02*
X130375313Y-103824800D01*
X130375313Y-103824800D02*
X130327694Y-103777180D01*
X130327694Y-103777180D02*
X130280075Y-103681942D01*
X130280075Y-103681942D02*
X130280075Y-103396228D01*
X130280075Y-103396228D02*
X130327694Y-103300990D01*
X130327694Y-103300990D02*
X130375313Y-103253371D01*
X130375313Y-103253371D02*
X130470551Y-103205752D01*
X130470551Y-103205752D02*
X130613408Y-103205752D01*
X130613408Y-103205752D02*
X130708646Y-103253371D01*
X130708646Y-103253371D02*
X130756265Y-103300990D01*
X130756265Y-103300990D02*
X130803884Y-103396228D01*
X130803884Y-103396228D02*
X130803884Y-103681942D01*
X130803884Y-103681942D02*
X130756265Y-103777180D01*
X130756265Y-103777180D02*
X130708646Y-103824800D01*
X130708646Y-103824800D02*
X130613408Y-103872419D01*
X130613408Y-103872419D02*
X130470551Y-103872419D01*
X131137218Y-103205752D02*
X131375313Y-103872419D01*
X131375313Y-103872419D02*
X131613408Y-103205752D01*
X132375313Y-103824800D02*
X132280075Y-103872419D01*
X132280075Y-103872419D02*
X132089599Y-103872419D01*
X132089599Y-103872419D02*
X131994361Y-103824800D01*
X131994361Y-103824800D02*
X131946742Y-103729561D01*
X131946742Y-103729561D02*
X131946742Y-103348609D01*
X131946742Y-103348609D02*
X131994361Y-103253371D01*
X131994361Y-103253371D02*
X132089599Y-103205752D01*
X132089599Y-103205752D02*
X132280075Y-103205752D01*
X132280075Y-103205752D02*
X132375313Y-103253371D01*
X132375313Y-103253371D02*
X132422932Y-103348609D01*
X132422932Y-103348609D02*
X132422932Y-103443847D01*
X132422932Y-103443847D02*
X131946742Y-103539085D01*
X132851504Y-103872419D02*
X132851504Y-103205752D01*
X132851504Y-103396228D02*
X132899123Y-103300990D01*
X132899123Y-103300990D02*
X132946742Y-103253371D01*
X132946742Y-103253371D02*
X133041980Y-103205752D01*
X133041980Y-103205752D02*
X133137218Y-103205752D01*
X134803885Y-103777180D02*
X134756266Y-103824800D01*
X134756266Y-103824800D02*
X134613409Y-103872419D01*
X134613409Y-103872419D02*
X134518171Y-103872419D01*
X134518171Y-103872419D02*
X134375314Y-103824800D01*
X134375314Y-103824800D02*
X134280076Y-103729561D01*
X134280076Y-103729561D02*
X134232457Y-103634323D01*
X134232457Y-103634323D02*
X134184838Y-103443847D01*
X134184838Y-103443847D02*
X134184838Y-103300990D01*
X134184838Y-103300990D02*
X134232457Y-103110514D01*
X134232457Y-103110514D02*
X134280076Y-103015276D01*
X134280076Y-103015276D02*
X134375314Y-102920038D01*
X134375314Y-102920038D02*
X134518171Y-102872419D01*
X134518171Y-102872419D02*
X134613409Y-102872419D01*
X134613409Y-102872419D02*
X134756266Y-102920038D01*
X134756266Y-102920038D02*
X134803885Y-102967657D01*
X135184838Y-103586704D02*
X135661028Y-103586704D01*
X135089600Y-103872419D02*
X135422933Y-102872419D01*
X135422933Y-102872419D02*
X135756266Y-103872419D01*
X135946743Y-102872419D02*
X136518171Y-102872419D01*
X136232457Y-103872419D02*
X136232457Y-102872419D01*
X137280076Y-102872419D02*
X137089600Y-102872419D01*
X137089600Y-102872419D02*
X136994362Y-102920038D01*
X136994362Y-102920038D02*
X136946743Y-102967657D01*
X136946743Y-102967657D02*
X136851505Y-103110514D01*
X136851505Y-103110514D02*
X136803886Y-103300990D01*
X136803886Y-103300990D02*
X136803886Y-103681942D01*
X136803886Y-103681942D02*
X136851505Y-103777180D01*
X136851505Y-103777180D02*
X136899124Y-103824800D01*
X136899124Y-103824800D02*
X136994362Y-103872419D01*
X136994362Y-103872419D02*
X137184838Y-103872419D01*
X137184838Y-103872419D02*
X137280076Y-103824800D01*
X137280076Y-103824800D02*
X137327695Y-103777180D01*
X137327695Y-103777180D02*
X137375314Y-103681942D01*
X137375314Y-103681942D02*
X137375314Y-103443847D01*
X137375314Y-103443847D02*
X137327695Y-103348609D01*
X137327695Y-103348609D02*
X137280076Y-103300990D01*
X137280076Y-103300990D02*
X137184838Y-103253371D01*
X137184838Y-103253371D02*
X136994362Y-103253371D01*
X136994362Y-103253371D02*
X136899124Y-103300990D01*
X136899124Y-103300990D02*
X136851505Y-103348609D01*
X136851505Y-103348609D02*
X136803886Y-103443847D01*
X138518172Y-103586704D02*
X138994362Y-103586704D01*
X138422934Y-103872419D02*
X138756267Y-102872419D01*
X138756267Y-102872419D02*
X139089600Y-103872419D01*
X139851505Y-103872419D02*
X139851505Y-102872419D01*
X139851505Y-103824800D02*
X139756267Y-103872419D01*
X139756267Y-103872419D02*
X139565791Y-103872419D01*
X139565791Y-103872419D02*
X139470553Y-103824800D01*
X139470553Y-103824800D02*
X139422934Y-103777180D01*
X139422934Y-103777180D02*
X139375315Y-103681942D01*
X139375315Y-103681942D02*
X139375315Y-103396228D01*
X139375315Y-103396228D02*
X139422934Y-103300990D01*
X139422934Y-103300990D02*
X139470553Y-103253371D01*
X139470553Y-103253371D02*
X139565791Y-103205752D01*
X139565791Y-103205752D02*
X139756267Y-103205752D01*
X139756267Y-103205752D02*
X139851505Y-103253371D01*
X140756267Y-103872419D02*
X140756267Y-103348609D01*
X140756267Y-103348609D02*
X140708648Y-103253371D01*
X140708648Y-103253371D02*
X140613410Y-103205752D01*
X140613410Y-103205752D02*
X140422934Y-103205752D01*
X140422934Y-103205752D02*
X140327696Y-103253371D01*
X140756267Y-103824800D02*
X140661029Y-103872419D01*
X140661029Y-103872419D02*
X140422934Y-103872419D01*
X140422934Y-103872419D02*
X140327696Y-103824800D01*
X140327696Y-103824800D02*
X140280077Y-103729561D01*
X140280077Y-103729561D02*
X140280077Y-103634323D01*
X140280077Y-103634323D02*
X140327696Y-103539085D01*
X140327696Y-103539085D02*
X140422934Y-103491466D01*
X140422934Y-103491466D02*
X140661029Y-103491466D01*
X140661029Y-103491466D02*
X140756267Y-103443847D01*
X141232458Y-103205752D02*
X141232458Y-104205752D01*
X141232458Y-103253371D02*
X141327696Y-103205752D01*
X141327696Y-103205752D02*
X141518172Y-103205752D01*
X141518172Y-103205752D02*
X141613410Y-103253371D01*
X141613410Y-103253371D02*
X141661029Y-103300990D01*
X141661029Y-103300990D02*
X141708648Y-103396228D01*
X141708648Y-103396228D02*
X141708648Y-103681942D01*
X141708648Y-103681942D02*
X141661029Y-103777180D01*
X141661029Y-103777180D02*
X141613410Y-103824800D01*
X141613410Y-103824800D02*
X141518172Y-103872419D01*
X141518172Y-103872419D02*
X141327696Y-103872419D01*
X141327696Y-103872419D02*
X141232458Y-103824800D01*
X141994363Y-103205752D02*
X142375315Y-103205752D01*
X142137220Y-102872419D02*
X142137220Y-103729561D01*
X142137220Y-103729561D02*
X142184839Y-103824800D01*
X142184839Y-103824800D02*
X142280077Y-103872419D01*
X142280077Y-103872419D02*
X142375315Y-103872419D01*
X143089601Y-103824800D02*
X142994363Y-103872419D01*
X142994363Y-103872419D02*
X142803887Y-103872419D01*
X142803887Y-103872419D02*
X142708649Y-103824800D01*
X142708649Y-103824800D02*
X142661030Y-103729561D01*
X142661030Y-103729561D02*
X142661030Y-103348609D01*
X142661030Y-103348609D02*
X142708649Y-103253371D01*
X142708649Y-103253371D02*
X142803887Y-103205752D01*
X142803887Y-103205752D02*
X142994363Y-103205752D01*
X142994363Y-103205752D02*
X143089601Y-103253371D01*
X143089601Y-103253371D02*
X143137220Y-103348609D01*
X143137220Y-103348609D02*
X143137220Y-103443847D01*
X143137220Y-103443847D02*
X142661030Y-103539085D01*
X143565792Y-103872419D02*
X143565792Y-103205752D01*
X143565792Y-103396228D02*
X143613411Y-103300990D01*
X143613411Y-103300990D02*
X143661030Y-103253371D01*
X143661030Y-103253371D02*
X143756268Y-103205752D01*
X143756268Y-103205752D02*
X143851506Y-103205752D01*
X169303884Y-127848609D02*
X169637217Y-127848609D01*
X169780074Y-128372419D02*
X169303884Y-128372419D01*
X169303884Y-128372419D02*
X169303884Y-127372419D01*
X169303884Y-127372419D02*
X169780074Y-127372419D01*
X170113408Y-127705752D02*
X170351503Y-128372419D01*
X170351503Y-128372419D02*
X170589598Y-127705752D01*
X171399122Y-128372419D02*
X171399122Y-127848609D01*
X171399122Y-127848609D02*
X171351503Y-127753371D01*
X171351503Y-127753371D02*
X171256265Y-127705752D01*
X171256265Y-127705752D02*
X171065789Y-127705752D01*
X171065789Y-127705752D02*
X170970551Y-127753371D01*
X171399122Y-128324800D02*
X171303884Y-128372419D01*
X171303884Y-128372419D02*
X171065789Y-128372419D01*
X171065789Y-128372419D02*
X170970551Y-128324800D01*
X170970551Y-128324800D02*
X170922932Y-128229561D01*
X170922932Y-128229561D02*
X170922932Y-128134323D01*
X170922932Y-128134323D02*
X170970551Y-128039085D01*
X170970551Y-128039085D02*
X171065789Y-127991466D01*
X171065789Y-127991466D02*
X171303884Y-127991466D01*
X171303884Y-127991466D02*
X171399122Y-127943847D01*
X171875313Y-127705752D02*
X171875313Y-128372419D01*
X171875313Y-127800990D02*
X171922932Y-127753371D01*
X171922932Y-127753371D02*
X172018170Y-127705752D01*
X172018170Y-127705752D02*
X172161027Y-127705752D01*
X172161027Y-127705752D02*
X172256265Y-127753371D01*
X172256265Y-127753371D02*
X172303884Y-127848609D01*
X172303884Y-127848609D02*
X172303884Y-128372419D01*
X174113408Y-128277180D02*
X174065789Y-128324800D01*
X174065789Y-128324800D02*
X173922932Y-128372419D01*
X173922932Y-128372419D02*
X173827694Y-128372419D01*
X173827694Y-128372419D02*
X173684837Y-128324800D01*
X173684837Y-128324800D02*
X173589599Y-128229561D01*
X173589599Y-128229561D02*
X173541980Y-128134323D01*
X173541980Y-128134323D02*
X173494361Y-127943847D01*
X173494361Y-127943847D02*
X173494361Y-127800990D01*
X173494361Y-127800990D02*
X173541980Y-127610514D01*
X173541980Y-127610514D02*
X173589599Y-127515276D01*
X173589599Y-127515276D02*
X173684837Y-127420038D01*
X173684837Y-127420038D02*
X173827694Y-127372419D01*
X173827694Y-127372419D02*
X173922932Y-127372419D01*
X173922932Y-127372419D02*
X174065789Y-127420038D01*
X174065789Y-127420038D02*
X174113408Y-127467657D01*
X174541980Y-128372419D02*
X174541980Y-127372419D01*
X174970551Y-128372419D02*
X174970551Y-127848609D01*
X174970551Y-127848609D02*
X174922932Y-127753371D01*
X174922932Y-127753371D02*
X174827694Y-127705752D01*
X174827694Y-127705752D02*
X174684837Y-127705752D01*
X174684837Y-127705752D02*
X174589599Y-127753371D01*
X174589599Y-127753371D02*
X174541980Y-127800990D01*
X175589599Y-128372419D02*
X175494361Y-128324800D01*
X175494361Y-128324800D02*
X175446742Y-128277180D01*
X175446742Y-128277180D02*
X175399123Y-128181942D01*
X175399123Y-128181942D02*
X175399123Y-127896228D01*
X175399123Y-127896228D02*
X175446742Y-127800990D01*
X175446742Y-127800990D02*
X175494361Y-127753371D01*
X175494361Y-127753371D02*
X175589599Y-127705752D01*
X175589599Y-127705752D02*
X175732456Y-127705752D01*
X175732456Y-127705752D02*
X175827694Y-127753371D01*
X175827694Y-127753371D02*
X175875313Y-127800990D01*
X175875313Y-127800990D02*
X175922932Y-127896228D01*
X175922932Y-127896228D02*
X175922932Y-128181942D01*
X175922932Y-128181942D02*
X175875313Y-128277180D01*
X175875313Y-128277180D02*
X175827694Y-128324800D01*
X175827694Y-128324800D02*
X175732456Y-128372419D01*
X175732456Y-128372419D02*
X175589599Y-128372419D01*
X176780075Y-128372419D02*
X176780075Y-127372419D01*
X176780075Y-128324800D02*
X176684837Y-128372419D01*
X176684837Y-128372419D02*
X176494361Y-128372419D01*
X176494361Y-128372419D02*
X176399123Y-128324800D01*
X176399123Y-128324800D02*
X176351504Y-128277180D01*
X176351504Y-128277180D02*
X176303885Y-128181942D01*
X176303885Y-128181942D02*
X176303885Y-127896228D01*
X176303885Y-127896228D02*
X176351504Y-127800990D01*
X176351504Y-127800990D02*
X176399123Y-127753371D01*
X176399123Y-127753371D02*
X176494361Y-127705752D01*
X176494361Y-127705752D02*
X176684837Y-127705752D01*
X176684837Y-127705752D02*
X176780075Y-127753371D01*
X177399123Y-128372419D02*
X177303885Y-128324800D01*
X177303885Y-128324800D02*
X177256266Y-128277180D01*
X177256266Y-128277180D02*
X177208647Y-128181942D01*
X177208647Y-128181942D02*
X177208647Y-127896228D01*
X177208647Y-127896228D02*
X177256266Y-127800990D01*
X177256266Y-127800990D02*
X177303885Y-127753371D01*
X177303885Y-127753371D02*
X177399123Y-127705752D01*
X177399123Y-127705752D02*
X177541980Y-127705752D01*
X177541980Y-127705752D02*
X177637218Y-127753371D01*
X177637218Y-127753371D02*
X177684837Y-127800990D01*
X177684837Y-127800990D02*
X177732456Y-127896228D01*
X177732456Y-127896228D02*
X177732456Y-128181942D01*
X177732456Y-128181942D02*
X177684837Y-128277180D01*
X177684837Y-128277180D02*
X177637218Y-128324800D01*
X177637218Y-128324800D02*
X177541980Y-128372419D01*
X177541980Y-128372419D02*
X177399123Y-128372419D01*
X178161028Y-128372419D02*
X178161028Y-127705752D01*
X178161028Y-127896228D02*
X178208647Y-127800990D01*
X178208647Y-127800990D02*
X178256266Y-127753371D01*
X178256266Y-127753371D02*
X178351504Y-127705752D01*
X178351504Y-127705752D02*
X178446742Y-127705752D01*
X179208647Y-128372419D02*
X179208647Y-127848609D01*
X179208647Y-127848609D02*
X179161028Y-127753371D01*
X179161028Y-127753371D02*
X179065790Y-127705752D01*
X179065790Y-127705752D02*
X178875314Y-127705752D01*
X178875314Y-127705752D02*
X178780076Y-127753371D01*
X179208647Y-128324800D02*
X179113409Y-128372419D01*
X179113409Y-128372419D02*
X178875314Y-128372419D01*
X178875314Y-128372419D02*
X178780076Y-128324800D01*
X178780076Y-128324800D02*
X178732457Y-128229561D01*
X178732457Y-128229561D02*
X178732457Y-128134323D01*
X178732457Y-128134323D02*
X178780076Y-128039085D01*
X178780076Y-128039085D02*
X178875314Y-127991466D01*
X178875314Y-127991466D02*
X179113409Y-127991466D01*
X179113409Y-127991466D02*
X179208647Y-127943847D01*
X179732457Y-128324800D02*
X179732457Y-128372419D01*
X179732457Y-128372419D02*
X179684838Y-128467657D01*
X179684838Y-128467657D02*
X179637219Y-128515276D01*
X180875314Y-127467657D02*
X180922933Y-127420038D01*
X180922933Y-127420038D02*
X181018171Y-127372419D01*
X181018171Y-127372419D02*
X181256266Y-127372419D01*
X181256266Y-127372419D02*
X181351504Y-127420038D01*
X181351504Y-127420038D02*
X181399123Y-127467657D01*
X181399123Y-127467657D02*
X181446742Y-127562895D01*
X181446742Y-127562895D02*
X181446742Y-127658133D01*
X181446742Y-127658133D02*
X181399123Y-127800990D01*
X181399123Y-127800990D02*
X180827695Y-128372419D01*
X180827695Y-128372419D02*
X181446742Y-128372419D01*
X182065790Y-127372419D02*
X182161028Y-127372419D01*
X182161028Y-127372419D02*
X182256266Y-127420038D01*
X182256266Y-127420038D02*
X182303885Y-127467657D01*
X182303885Y-127467657D02*
X182351504Y-127562895D01*
X182351504Y-127562895D02*
X182399123Y-127753371D01*
X182399123Y-127753371D02*
X182399123Y-127991466D01*
X182399123Y-127991466D02*
X182351504Y-128181942D01*
X182351504Y-128181942D02*
X182303885Y-128277180D01*
X182303885Y-128277180D02*
X182256266Y-128324800D01*
X182256266Y-128324800D02*
X182161028Y-128372419D01*
X182161028Y-128372419D02*
X182065790Y-128372419D01*
X182065790Y-128372419D02*
X181970552Y-128324800D01*
X181970552Y-128324800D02*
X181922933Y-128277180D01*
X181922933Y-128277180D02*
X181875314Y-128181942D01*
X181875314Y-128181942D02*
X181827695Y-127991466D01*
X181827695Y-127991466D02*
X181827695Y-127753371D01*
X181827695Y-127753371D02*
X181875314Y-127562895D01*
X181875314Y-127562895D02*
X181922933Y-127467657D01*
X181922933Y-127467657D02*
X181970552Y-127420038D01*
X181970552Y-127420038D02*
X182065790Y-127372419D01*
X182780076Y-127467657D02*
X182827695Y-127420038D01*
X182827695Y-127420038D02*
X182922933Y-127372419D01*
X182922933Y-127372419D02*
X183161028Y-127372419D01*
X183161028Y-127372419D02*
X183256266Y-127420038D01*
X183256266Y-127420038D02*
X183303885Y-127467657D01*
X183303885Y-127467657D02*
X183351504Y-127562895D01*
X183351504Y-127562895D02*
X183351504Y-127658133D01*
X183351504Y-127658133D02*
X183303885Y-127800990D01*
X183303885Y-127800990D02*
X182732457Y-128372419D01*
X182732457Y-128372419D02*
X183351504Y-128372419D01*
X184256266Y-127372419D02*
X183780076Y-127372419D01*
X183780076Y-127372419D02*
X183732457Y-127848609D01*
X183732457Y-127848609D02*
X183780076Y-127800990D01*
X183780076Y-127800990D02*
X183875314Y-127753371D01*
X183875314Y-127753371D02*
X184113409Y-127753371D01*
X184113409Y-127753371D02*
X184208647Y-127800990D01*
X184208647Y-127800990D02*
X184256266Y-127848609D01*
X184256266Y-127848609D02*
X184303885Y-127943847D01*
X184303885Y-127943847D02*
X184303885Y-128181942D01*
X184303885Y-128181942D02*
X184256266Y-128277180D01*
X184256266Y-128277180D02*
X184208647Y-128324800D01*
X184208647Y-128324800D02*
X184113409Y-128372419D01*
X184113409Y-128372419D02*
X183875314Y-128372419D01*
X183875314Y-128372419D02*
X183780076Y-128324800D01*
X183780076Y-128324800D02*
X183732457Y-128277180D01*
D11*
X149166666Y-124454819D02*
X149166666Y-125169104D01*
X149166666Y-125169104D02*
X149119047Y-125311961D01*
X149119047Y-125311961D02*
X149023809Y-125407200D01*
X149023809Y-125407200D02*
X148880952Y-125454819D01*
X148880952Y-125454819D02*
X148785714Y-125454819D01*
X150119047Y-124454819D02*
X149642857Y-124454819D01*
X149642857Y-124454819D02*
X149595238Y-124931009D01*
X149595238Y-124931009D02*
X149642857Y-124883390D01*
X149642857Y-124883390D02*
X149738095Y-124835771D01*
X149738095Y-124835771D02*
X149976190Y-124835771D01*
X149976190Y-124835771D02*
X150071428Y-124883390D01*
X150071428Y-124883390D02*
X150119047Y-124931009D01*
X150119047Y-124931009D02*
X150166666Y-125026247D01*
X150166666Y-125026247D02*
X150166666Y-125264342D01*
X150166666Y-125264342D02*
X150119047Y-125359580D01*
X150119047Y-125359580D02*
X150071428Y-125407200D01*
X150071428Y-125407200D02*
X149976190Y-125454819D01*
X149976190Y-125454819D02*
X149738095Y-125454819D01*
X149738095Y-125454819D02*
X149642857Y-125407200D01*
X149642857Y-125407200D02*
X149595238Y-125359580D01*
X185901666Y-124289819D02*
X185901666Y-125004104D01*
X185901666Y-125004104D02*
X185854047Y-125146961D01*
X185854047Y-125146961D02*
X185758809Y-125242200D01*
X185758809Y-125242200D02*
X185615952Y-125289819D01*
X185615952Y-125289819D02*
X185520714Y-125289819D01*
X186806428Y-124623152D02*
X186806428Y-125289819D01*
X186568333Y-124242200D02*
X186330238Y-124956485D01*
X186330238Y-124956485D02*
X186949285Y-124956485D01*
X125666666Y-124454819D02*
X125666666Y-125169104D01*
X125666666Y-125169104D02*
X125619047Y-125311961D01*
X125619047Y-125311961D02*
X125523809Y-125407200D01*
X125523809Y-125407200D02*
X125380952Y-125454819D01*
X125380952Y-125454819D02*
X125285714Y-125454819D01*
X126666666Y-125454819D02*
X126095238Y-125454819D01*
X126380952Y-125454819D02*
X126380952Y-124454819D01*
X126380952Y-124454819D02*
X126285714Y-124597676D01*
X126285714Y-124597676D02*
X126190476Y-124692914D01*
X126190476Y-124692914D02*
X126095238Y-124740533D01*
X131801666Y-124289819D02*
X131801666Y-125004104D01*
X131801666Y-125004104D02*
X131754047Y-125146961D01*
X131754047Y-125146961D02*
X131658809Y-125242200D01*
X131658809Y-125242200D02*
X131515952Y-125289819D01*
X131515952Y-125289819D02*
X131420714Y-125289819D01*
X132230238Y-124385057D02*
X132277857Y-124337438D01*
X132277857Y-124337438D02*
X132373095Y-124289819D01*
X132373095Y-124289819D02*
X132611190Y-124289819D01*
X132611190Y-124289819D02*
X132706428Y-124337438D01*
X132706428Y-124337438D02*
X132754047Y-124385057D01*
X132754047Y-124385057D02*
X132801666Y-124480295D01*
X132801666Y-124480295D02*
X132801666Y-124575533D01*
X132801666Y-124575533D02*
X132754047Y-124718390D01*
X132754047Y-124718390D02*
X132182619Y-125289819D01*
X132182619Y-125289819D02*
X132801666Y-125289819D01*
X168101666Y-124289819D02*
X168101666Y-125004104D01*
X168101666Y-125004104D02*
X168054047Y-125146961D01*
X168054047Y-125146961D02*
X167958809Y-125242200D01*
X167958809Y-125242200D02*
X167815952Y-125289819D01*
X167815952Y-125289819D02*
X167720714Y-125289819D01*
X168482619Y-124289819D02*
X169101666Y-124289819D01*
X169101666Y-124289819D02*
X168768333Y-124670771D01*
X168768333Y-124670771D02*
X168911190Y-124670771D01*
X168911190Y-124670771D02*
X169006428Y-124718390D01*
X169006428Y-124718390D02*
X169054047Y-124766009D01*
X169054047Y-124766009D02*
X169101666Y-124861247D01*
X169101666Y-124861247D02*
X169101666Y-125099342D01*
X169101666Y-125099342D02*
X169054047Y-125194580D01*
X169054047Y-125194580D02*
X169006428Y-125242200D01*
X169006428Y-125242200D02*
X168911190Y-125289819D01*
X168911190Y-125289819D02*
X168625476Y-125289819D01*
X168625476Y-125289819D02*
X168530238Y-125242200D01*
X168530238Y-125242200D02*
X168482619Y-125194580D01*
D12*
%TO.C,J5*%
X150200000Y-110860000D02*
G75*
G02*
X150000000Y-110860000I-100000J0D01*
G01*
X150000000Y-110860000D02*
G75*
G02*
X150200000Y-110860000I100000J0D01*
G01*
X148220000Y-107200000D02*
X163780000Y-107200000D01*
X148220000Y-123800000D02*
X148220000Y-107200000D01*
X163780000Y-107200000D02*
X163780000Y-123800000D01*
X163780000Y-123800000D02*
X148220000Y-123800000D01*
%TO.C,J4*%
X188900000Y-110920000D02*
G75*
G02*
X188700000Y-110920000I-100000J0D01*
G01*
X188700000Y-110920000D02*
G75*
G02*
X188900000Y-110920000I100000J0D01*
G01*
X185175000Y-107160000D02*
X198825000Y-107160000D01*
X185175000Y-123840000D02*
X185175000Y-107160000D01*
X198825000Y-107160000D02*
X198825000Y-123840000D01*
X198825000Y-123840000D02*
X185175000Y-123840000D01*
%TO.C,J1*%
X116900000Y-110920000D02*
G75*
G02*
X116700000Y-110920000I-100000J0D01*
G01*
X116700000Y-110920000D02*
G75*
G02*
X116900000Y-110920000I100000J0D01*
G01*
X113175000Y-107160000D02*
X126825000Y-107160000D01*
X113175000Y-123840000D02*
X113175000Y-107160000D01*
X126825000Y-107160000D02*
X126825000Y-123840000D01*
X126825000Y-123840000D02*
X113175000Y-123840000D01*
%TO.C,J2*%
X134900000Y-110920000D02*
G75*
G02*
X134700000Y-110920000I-100000J0D01*
G01*
X134700000Y-110920000D02*
G75*
G02*
X134900000Y-110920000I100000J0D01*
G01*
X131175000Y-107160000D02*
X144825000Y-107160000D01*
X131175000Y-123840000D02*
X131175000Y-107160000D01*
X144825000Y-107160000D02*
X144825000Y-123840000D01*
X144825000Y-123840000D02*
X131175000Y-123840000D01*
%TO.C,J3*%
X170900000Y-110920000D02*
G75*
G02*
X170700000Y-110920000I-100000J0D01*
G01*
X170700000Y-110920000D02*
G75*
G02*
X170900000Y-110920000I100000J0D01*
G01*
X167175000Y-107160000D02*
X180825000Y-107160000D01*
X167175000Y-123840000D02*
X167175000Y-107160000D01*
X180825000Y-107160000D02*
X180825000Y-123840000D01*
X180825000Y-123840000D02*
X167175000Y-123840000D01*
%TD*%
M02*
